<mxfile host="app.diagrams.net" agent="Mozilla/5.0 (X11; Linux x86_64) AppleWebKit/537.36 (KHTML, like Gecko) Chrome/124.0.0.0 Safari/537.36" version="24.7.16">
  <diagram name="Page-1" id="jto-qtzXlHKbKDOFZij-">
    <mxGraphModel dx="1793" dy="985" grid="1" gridSize="10" guides="1" tooltips="1" connect="1" arrows="1" fold="1" page="1" pageScale="1" pageWidth="850" pageHeight="1100" math="0" shadow="0">
      <root>
        <mxCell id="0" />
        <mxCell id="1" parent="0" />
        <mxCell id="kgj0ZtWSBMvPHDnNzbXX-109" style="edgeStyle=orthogonalEdgeStyle;rounded=0;orthogonalLoop=1;jettySize=auto;html=1;entryX=0;entryY=0.5;entryDx=0;entryDy=0;" parent="1" source="PpdtgeAWT0-9ttJKp4jD-1" target="PpdtgeAWT0-9ttJKp4jD-12" edge="1">
          <mxGeometry relative="1" as="geometry">
            <mxPoint x="680" y="234.99999999999977" as="sourcePoint" />
            <mxPoint x="800" y="335" as="targetPoint" />
            <Array as="points" />
          </mxGeometry>
        </mxCell>
        <mxCell id="PpdtgeAWT0-9ttJKp4jD-1" value="&lt;span style=&quot;font-size: 20px;&quot;&gt;Lista&lt;/span&gt;" style="rounded=0;whiteSpace=wrap;html=1;" vertex="1" parent="1">
          <mxGeometry x="540" y="240" width="120" height="60" as="geometry" />
        </mxCell>
        <mxCell id="PpdtgeAWT0-9ttJKp4jD-16" style="edgeStyle=orthogonalEdgeStyle;rounded=0;orthogonalLoop=1;jettySize=auto;html=1;entryX=1;entryY=0.5;entryDx=0;entryDy=0;" edge="1" parent="1" source="PpdtgeAWT0-9ttJKp4jD-2" target="PpdtgeAWT0-9ttJKp4jD-12">
          <mxGeometry relative="1" as="geometry">
            <Array as="points">
              <mxPoint x="1280" y="270" />
            </Array>
          </mxGeometry>
        </mxCell>
        <mxCell id="PpdtgeAWT0-9ttJKp4jD-31" style="edgeStyle=orthogonalEdgeStyle;rounded=0;orthogonalLoop=1;jettySize=auto;html=1;" edge="1" parent="1" source="PpdtgeAWT0-9ttJKp4jD-2" target="PpdtgeAWT0-9ttJKp4jD-28">
          <mxGeometry relative="1" as="geometry" />
        </mxCell>
        <mxCell id="PpdtgeAWT0-9ttJKp4jD-2" value="" style="rounded=0;whiteSpace=wrap;html=1;" vertex="1" parent="1">
          <mxGeometry x="1230" y="290" width="340" height="110" as="geometry" />
        </mxCell>
        <mxCell id="PpdtgeAWT0-9ttJKp4jD-3" value="" style="endArrow=none;html=1;rounded=0;entryX=0.5;entryY=0;entryDx=0;entryDy=0;exitX=0.5;exitY=1;exitDx=0;exitDy=0;" edge="1" parent="1" source="PpdtgeAWT0-9ttJKp4jD-2" target="PpdtgeAWT0-9ttJKp4jD-2">
          <mxGeometry width="50" height="50" relative="1" as="geometry">
            <mxPoint x="1430" y="370" as="sourcePoint" />
            <mxPoint x="1480" y="320" as="targetPoint" />
          </mxGeometry>
        </mxCell>
        <mxCell id="PpdtgeAWT0-9ttJKp4jD-4" value="&lt;font style=&quot;font-size: 20px;&quot;&gt;siguiente&lt;/font&gt;" style="text;html=1;align=center;verticalAlign=middle;whiteSpace=wrap;rounded=0;" vertex="1" parent="1">
          <mxGeometry x="1470" y="330" width="80" height="30" as="geometry" />
        </mxCell>
        <mxCell id="PpdtgeAWT0-9ttJKp4jD-6" value="&lt;span style=&quot;font-size: 20px;&quot;&gt;Nodo&lt;/span&gt;" style="rounded=0;whiteSpace=wrap;html=1;" vertex="1" parent="1">
          <mxGeometry x="1230" y="400" width="340" height="40" as="geometry" />
        </mxCell>
        <mxCell id="PpdtgeAWT0-9ttJKp4jD-7" value="&lt;span style=&quot;font-size: 20px;&quot;&gt;dato&lt;/span&gt;" style="rounded=0;whiteSpace=wrap;html=1;" vertex="1" parent="1">
          <mxGeometry x="1330" y="290" width="120" height="110" as="geometry" />
        </mxCell>
        <mxCell id="PpdtgeAWT0-9ttJKp4jD-8" value="&lt;span style=&quot;font-size: 20px;&quot;&gt;anterior&lt;/span&gt;" style="text;html=1;align=center;verticalAlign=middle;whiteSpace=wrap;rounded=0;" vertex="1" parent="1">
          <mxGeometry x="1240" y="330" width="80" height="30" as="geometry" />
        </mxCell>
        <mxCell id="PpdtgeAWT0-9ttJKp4jD-15" style="edgeStyle=orthogonalEdgeStyle;rounded=0;orthogonalLoop=1;jettySize=auto;html=1;entryX=0;entryY=0.5;entryDx=0;entryDy=0;" edge="1" parent="1" source="PpdtgeAWT0-9ttJKp4jD-9" target="PpdtgeAWT0-9ttJKp4jD-6">
          <mxGeometry relative="1" as="geometry" />
        </mxCell>
        <mxCell id="PpdtgeAWT0-9ttJKp4jD-9" value="" style="rounded=0;whiteSpace=wrap;html=1;" vertex="1" parent="1">
          <mxGeometry x="800" y="290" width="340" height="110" as="geometry" />
        </mxCell>
        <mxCell id="PpdtgeAWT0-9ttJKp4jD-10" value="" style="endArrow=none;html=1;rounded=0;entryX=0.5;entryY=0;entryDx=0;entryDy=0;exitX=0.5;exitY=1;exitDx=0;exitDy=0;" edge="1" parent="1" source="PpdtgeAWT0-9ttJKp4jD-9" target="PpdtgeAWT0-9ttJKp4jD-9">
          <mxGeometry width="50" height="50" relative="1" as="geometry">
            <mxPoint x="1000" y="370" as="sourcePoint" />
            <mxPoint x="1050" y="320" as="targetPoint" />
          </mxGeometry>
        </mxCell>
        <mxCell id="PpdtgeAWT0-9ttJKp4jD-11" value="&lt;font style=&quot;font-size: 20px;&quot;&gt;siguiente&lt;/font&gt;" style="text;html=1;align=center;verticalAlign=middle;whiteSpace=wrap;rounded=0;" vertex="1" parent="1">
          <mxGeometry x="1040" y="330" width="80" height="30" as="geometry" />
        </mxCell>
        <mxCell id="PpdtgeAWT0-9ttJKp4jD-12" value="&lt;span style=&quot;font-size: 20px;&quot;&gt;Nodo&lt;/span&gt;" style="rounded=0;whiteSpace=wrap;html=1;" vertex="1" parent="1">
          <mxGeometry x="800" y="250" width="340" height="40" as="geometry" />
        </mxCell>
        <mxCell id="PpdtgeAWT0-9ttJKp4jD-13" value="&lt;span style=&quot;font-size: 20px;&quot;&gt;dato&lt;/span&gt;" style="rounded=0;whiteSpace=wrap;html=1;" vertex="1" parent="1">
          <mxGeometry x="900" y="290" width="120" height="110" as="geometry" />
        </mxCell>
        <mxCell id="PpdtgeAWT0-9ttJKp4jD-14" value="&lt;span style=&quot;font-size: 20px;&quot;&gt;anterior&lt;/span&gt;" style="text;html=1;align=center;verticalAlign=middle;whiteSpace=wrap;rounded=0;" vertex="1" parent="1">
          <mxGeometry x="810" y="330" width="80" height="30" as="geometry" />
        </mxCell>
        <mxCell id="PpdtgeAWT0-9ttJKp4jD-32" style="edgeStyle=orthogonalEdgeStyle;rounded=0;orthogonalLoop=1;jettySize=auto;html=1;entryX=1;entryY=0.5;entryDx=0;entryDy=0;" edge="1" parent="1" source="PpdtgeAWT0-9ttJKp4jD-25" target="PpdtgeAWT0-9ttJKp4jD-6">
          <mxGeometry relative="1" as="geometry">
            <Array as="points">
              <mxPoint x="1690" y="420" />
            </Array>
          </mxGeometry>
        </mxCell>
        <mxCell id="PpdtgeAWT0-9ttJKp4jD-25" value="" style="rounded=0;whiteSpace=wrap;html=1;" vertex="1" parent="1">
          <mxGeometry x="1640" y="290" width="340" height="110" as="geometry" />
        </mxCell>
        <mxCell id="PpdtgeAWT0-9ttJKp4jD-26" value="" style="endArrow=none;html=1;rounded=0;entryX=0.5;entryY=0;entryDx=0;entryDy=0;exitX=0.5;exitY=1;exitDx=0;exitDy=0;" edge="1" parent="1" source="PpdtgeAWT0-9ttJKp4jD-25" target="PpdtgeAWT0-9ttJKp4jD-25">
          <mxGeometry width="50" height="50" relative="1" as="geometry">
            <mxPoint x="1840" y="370" as="sourcePoint" />
            <mxPoint x="1890" y="320" as="targetPoint" />
          </mxGeometry>
        </mxCell>
        <mxCell id="PpdtgeAWT0-9ttJKp4jD-27" value="&lt;font style=&quot;font-size: 20px;&quot;&gt;siguiente&lt;/font&gt;" style="text;html=1;align=center;verticalAlign=middle;whiteSpace=wrap;rounded=0;" vertex="1" parent="1">
          <mxGeometry x="1880" y="330" width="80" height="30" as="geometry" />
        </mxCell>
        <mxCell id="PpdtgeAWT0-9ttJKp4jD-28" value="&lt;span style=&quot;font-size: 20px;&quot;&gt;Nodo&lt;/span&gt;" style="rounded=0;whiteSpace=wrap;html=1;" vertex="1" parent="1">
          <mxGeometry x="1640" y="250" width="340" height="40" as="geometry" />
        </mxCell>
        <mxCell id="PpdtgeAWT0-9ttJKp4jD-29" value="&lt;span style=&quot;font-size: 20px;&quot;&gt;dato&lt;/span&gt;" style="rounded=0;whiteSpace=wrap;html=1;" vertex="1" parent="1">
          <mxGeometry x="1740" y="290" width="120" height="110" as="geometry" />
        </mxCell>
        <mxCell id="PpdtgeAWT0-9ttJKp4jD-30" value="&lt;span style=&quot;font-size: 20px;&quot;&gt;anterior&lt;/span&gt;" style="text;html=1;align=center;verticalAlign=middle;whiteSpace=wrap;rounded=0;" vertex="1" parent="1">
          <mxGeometry x="1650" y="330" width="80" height="30" as="geometry" />
        </mxCell>
      </root>
    </mxGraphModel>
  </diagram>
</mxfile>
